:FULLY-SPECIFIED
:FORCE-ALL-JOINTS-BE-3DOF
:DEGREES
272
root 8.31683 16.1465 -25.18 21.7443 68.6702 19.337
lfemur -25.021 8.32311 -22.5442
ltibia 42.0016 0 0
lfoot -7.30129 -21.2726 0
ltoes 62.6625 0 0
rfemur -51.1176 -4.48452 13.2334
rtibia 80.563 0 0
rfoot 8.36206 -1.96419 0
rtoes 0.826346 0 0
lowerback 6.25077 -4.41417 -2.55746
upperback 1.50211 -6.0403 -1.66031
thorax -1.86815 -2.98278 0.192283
lowerneck -5.43724 -10.9872 -4.56948
upperneck 0.843208 -14.5094 5.1541
head 1.97516 -7.17203 1.83839
lclavicle 2.53503e-14 1.11896e-14 0
lhumerus -45.2167 -35.4697 107.838
lradius 59.3333 0 0
lwrist 20.2849 0 0
lhand 18.5515 14.8193 0
lfingers 7.12502 0 0
lthumb 43.1717 38.9073 0
rclavicle 2.53503e-14 1.11896e-14 0
rhumerus -54.0334 2.98412 -94.0947
rradius 45.5865 0 0
rwrist 25.3708 0 0
rhand -24.0372 3.01316 0
rfingers 7.12502 0 0
rthumb 2.44113 -746.942 0
273
root 8.37817 16.1444 -25.1527 22.3878 69.7564 20.3952
lfemur -24.5008 7.64156 -22.8191
ltibia 41.9173 0 0
lfoot -6.82476 -21.9394 0
ltoes 63.1574 0 0
rfemur -52.8973 -4.94716 13.8667
rtibia 81.5852 0 0
rfoot 7.86687 -1.27718 0
rtoes 1.10115 0 0
lowerback 6.49438 -4.51323 -2.6366
upperback 1.62076 -6.1818 -1.89605
thorax -1.89012 -3.05297 0.0141271
lowerneck -5.20866 -11.1539 -4.70486
upperneck 0.756451 -14.7358 5.38885
head 1.94092 -7.28245 1.93423
lclavicle 2.80394e-14 1.15902e-14 0
lhumerus -44.9007 -35.555 107.242
lradius 59.225 0 0
lwrist 20.2995 0 0
lhand 19.1517 14.9576 0
lfingers 7.12502 0 0
lthumb 43.7378 38.8859 0
rclavicle 2.80394e-14 1.15902e-14 0
rhumerus -54.6352 3.47966 -95.5765
rradius 45.8571 0 0
rwrist 24.4049 0 0
rhand -24.3907 3.25639 0
rfingers 7.12502 0 0
rthumb 2.09986 -746.708 0
274
root 8.4395 16.1423 -25.1255 23.0313 70.8426 21.4534
lfemur -23.9806 6.96001 -23.0939
ltibia 41.8329 0 0
lfoot -6.34822 -22.6063 0
ltoes 63.6522 0 0
rfemur -54.677 -5.40979 14.4999
rtibia 82.6074 0 0
rfoot 7.37167 -0.590177 0
rtoes 1.37596 0 0
lowerback 6.738 -4.61229 -2.71573
upperback 1.7394 -6.3233 -2.13178
thorax -1.91208 -3.12316 -0.164029
lowerneck -4.98008 -11.3206 -4.84023
upperneck 0.669695 -14.9622 5.62359
head 1.90668 -7.39287 2.03008
lclavicle 3.07285e-14 1.19908e-14 0
lhumerus -44.5846 -35.6402 106.647
lradius 59.1166 0 0
lwrist 20.3141 0 0
lhand 19.7519 15.0959 0
lfingers 7.12502 0 0
lthumb 44.3039 38.8645 0
rclavicle 3.07285e-14 1.19908e-14 0
rhumerus -55.2369 3.9752 -97.0583
rradius 46.1277 0 0
rwrist 23.439 0 0
rhand -24.7442 3.49961 0
rfingers 7.12502 0 0
rthumb 1.75858 -746.473 0
275
root 8.49337 16.1004 -25.0747 23.4363 71.0798 22.3032
lfemur -23.5299 7.16771 -22.9647
ltibia 42.4727 0 0
lfoot -6.71104 -23.1128 0
ltoes 63.3548 0 0
rfemur -53.9705 -5.38196 15.031
rtibia 81.1089 0 0
rfoot 6.9999 -1.44263 0
rtoes 3.57335 0 0
lowerback 6.74818 -4.62531 -2.95185
upperback 1.86732 -6.34336 -2.22029
thorax -1.76704 -3.13658 -0.132461
lowerneck -4.87181 -11.3618 -4.91992
upperneck 0.793841 -15.0317 5.76527
head 1.95602 -7.42618 2.08718
lclavicle 2.47949e-14 1.12873e-14 0
lhumerus -44.3989 -35.8272 106.369
lradius 59.1891 0 0
lwrist 20.282 0 0
lhand 19.7958 15.1279 0
lfingers 7.12502 0 0
lthumb 44.3448 38.8807 0
rclavicle 2.47949e-14 1.12873e-14 0
rhumerus -56.1128 5.36285 -97.4932
rradius 47.5633 0 0
rwrist 23.1392 0 0
rhand -24.8376 2.81382 0
rfingers 7.12502 0 0
rthumb 1.66837 -747.159 0
276
root 8.54725 16.0584 -25.0238 23.8414 71.3169 23.1529
lfemur -23.0792 7.37542 -22.8354
ltibia 43.1125 0 0
lfoot -7.07386 -23.6193 0
ltoes 63.0574 0 0
rfemur -53.2639 -5.35413 15.5621
rtibia 79.6105 0 0
rfoot 6.62812 -2.29508 0
rtoes 5.77074 0 0
lowerback 6.75835 -4.63832 -3.18797
upperback 1.99524 -6.36342 -2.30881
thorax -1.622 -3.15 -0.100892
lowerneck -4.76354 -11.403 -4.9996
upperneck 0.917987 -15.1012 5.90695
head 2.00536 -7.45948 2.14428
lclavicle 1.88614e-14 1.05838e-14 0
lhumerus -44.2132 -36.0142 106.091
lradius 59.2617 0 0
lwrist 20.2499 0 0
lhand 19.8397 15.16 0
lfingers 7.12502 0 0
lthumb 44.3857 38.8968 0
rclavicle 1.88614e-14 1.05838e-14 0
rhumerus -56.9887 6.7505 -97.9281
rradius 48.999 0 0
rwrist 22.8394 0 0
rhand -24.931 2.12804 0
rfingers 7.12502 0 0
rthumb 1.57816 -747.845 0
277
root 8.60112 16.0165 -24.973 24.2464 71.5541 24.0027
lfemur -22.6285 7.58312 -22.7062
ltibia 43.7523 0 0
lfoot -7.43667 -24.1258 0
ltoes 62.7601 0 0
rfemur -52.5574 -5.3263 16.0931
rtibia 78.112 0 0
rfoot 6.25635 -3.14754 0
rtoes 7.96814 0 0
lowerback 6.76853 -4.65134 -3.42409
upperback 2.12316 -6.38348 -2.39732
thorax -1.47697 -3.16341 -0.0693239
lowerneck -4.65528 -11.4442 -5.07929
upperneck 1.04213 -15.1707 6.04863
head 2.05469 -7.49279 2.20138
lclavicle 1.29278e-14 9.88026e-15 0
lhumerus -44.0275 -36.2013 105.813
lradius 59.3342 0 0
lwrist 20.2178 0 0
lhand 19.8836 15.192 0
lfingers 7.12502 0 0
lthumb 44.4265 38.913 0
rclavicle 1.29278e-14 9.88026e-15 0
rhumerus -57.8647 8.13814 -98.363
rradius 50.4346 0 0
rwrist 22.5396 0 0
rhand -25.0244 1.44225 0
rfingers 7.12502 0 0
rthumb 1.48795 -748.531 0
278
root 8.655 15.9745 -24.9221 24.6515 71.7912 24.8524
lfemur -22.1777 7.79083 -22.577
ltibia 44.3921 0 0
lfoot -7.79949 -24.6323 0
ltoes 62.4627 0 0
rfemur -51.8508 -5.29847 16.6242
rtibia 76.6136 0 0
rfoot 5.88457 -3.99999 0
rtoes 10.1655 0 0
lowerback 6.7787 -4.66435 -3.66021
upperback 2.25107 -6.40354 -2.48583
thorax -1.33193 -3.17683 -0.0377555
lowerneck -4.54701 -11.4854 -5.15897
upperneck 1.16628 -15.2402 6.19031
head 2.10403 -7.52609 2.25847
lclavicle 6.99429e-15 9.17674e-15 0
lhumerus -43.8418 -36.3883 105.535
lradius 59.4068 0 0
lwrist 20.1856 0 0
lhand 19.9275 15.224 0
lfingers 7.12502 0 0
lthumb 44.4674 38.9291 0
rclavicle 6.99429e-15 9.17674e-15 0
rhumerus -58.7406 9.52579 -98.7979
rradius 51.8702 0 0
rwrist 22.2398 0 0
rhand -25.1178 0.756465 0
rfingers 7.12502 0 0
rthumb 1.39773 -749.218 0
